<svg viewBox="0 0 130.93 130.93" xmlns="http://www.w3.org/2000/svg"><path d="m88.27 38.49c0 8.17-2.14 15.83-5.91 22.46-7.98-13.67-22.76-22.88-39.71-22.98v-.52c0-29.32 43.84-30.92 45.54-1.65.05.89.08 1.78.08 2.68z" fill="#f0abfc"/><path d="m93.37 42.66c29.32 0 30.92 43.84 1.65 45.54-.89.05-1.78.08-2.68.08-8.02 0-15.55-2.07-22.09-5.7 13.6-8.04 22.71-22.86 22.71-39.8v-.11h.41z" fill="#fcd34d"/><path d="m88.27 92.96v.51c0 29.32-43.84 30.92-45.54 1.65-.05-.89-.08-1.78-.08-2.68 0-8.17 2.15-15.84 5.91-22.47 7.97 13.68 22.76 22.89 39.7 22.99z" fill="#818cf8"/><path d="m60.68 48.36c-13.6 8.05-22.71 22.86-22.71 39.81v.11h-.41c-29.32 0-30.92-43.84-1.65-45.54.89-.05 1.78-.08 2.68-.08 8.01 0 15.54 2.07 22.08 5.7z" fill="#a78bfa"/></svg>