<svg height="493.5" viewBox="0 0 576.49928 493.5" width="576.49928" xmlns="http://www.w3.org/2000/svg"><path d="m481.17233 691.60038c9.25458-7.82 14.87595-20.17341 13.40175-32.19951s-10.605-23.08177-22.44888-25.63556-25.34517 4.51552-28.94256 16.08527c-1.97981-22.306-4.26119-45.54663-16.12049-64.54228-10.73831-17.2001-29.33726-29.50744-49.49431-31.70921s-41.37985 6.11408-53.95107 22.0238-15.64923 39.03914-6.84467 57.3048c6.486 13.45569 18.43551 23.46957 30.95562 31.61638a199.78578 199.78578 0 0 0 136.64075 29.89252" fill="#f2f2f2" transform="translate(-311.75036 -203.25)"/><path d="m343.54974 560.17414a326.87926 326.87926 0 0 1 45.55381 45.23486 327.83254 327.83254 0 0 1 51.30832 85.74145c.92389 2.264-2.75246 3.24952-3.66608 1.0107a324.46215 324.46215 0 0 0 -29.64717-56.09367 325.69973 325.69973 0 0 0 -66.23723-73.20495c-1.898-1.54556.806-4.22115 2.68835-2.68834z" fill="#fff" transform="translate(-311.75036 -203.25)"/><path d="m487.56461 691.60038c-9.25458-7.82-14.87595-20.17341-13.40175-32.19951s10.605-23.08177 22.44888-25.63556 25.34518 4.51552 28.94256 16.08527c1.97982-22.306 4.26119-45.54663 16.1205-64.54228 10.7383-17.2001 29.33725-29.50744 49.49431-31.70921s41.37984 6.11408 53.95106 22.0238 15.64923 39.03914 6.84468 57.3048c-6.486 13.45569-18.43552 23.46957-30.95563 31.61638a199.78578 199.78578 0 0 1 -136.64075 29.89252" fill="#f2f2f2" transform="translate(-311.75036 -203.25)"/><path d="m625.18721 560.17414a326.87878 326.87878 0 0 0 -45.55382 45.23486 327.83254 327.83254 0 0 0 -51.30832 85.74145c-.92389 2.264 2.75246 3.24952 3.66608 1.0107a325.98749 325.98749 0 0 1 95.8844-129.29862c1.898-1.54556-.806-4.22115-2.68834-2.68834z" fill="#fff" transform="translate(-311.75036 -203.25)"/><circle cx="203.27678" cy="191" fill="#f2f2f2" r="31"/><g transform="translate(-311.75036 -203.25)"><path d="m419.4457 287.3877h213.58144v11.6853h-186.31586a83.41834 83.41834 0 0 0 -83.41857 83.41839v132.75861h-23.37049a3.89516 3.89516 0 0 1 -3.89508-3.89508v-140.54883a83.41833 83.41833 0 0 1 83.41856-83.41839z" fill="#f2f2f2"/><path d="m460.52714 692.25v-177.5h52v177.5a4.50508 4.50508 0 0 1 -4.5 4.5h-43a4.50508 4.50508 0 0 1 -4.5-4.5z" fill="#3f3d56"/><path d="m325.02714 511.25v-144.33447a86.76355 86.76355 0 0 1 86.66528-86.66553h220.33472v236h-302a5.00573 5.00573 0 0 1 -5-5zm305-229h-218.33472a84.76141 84.76141 0 0 0 -84.66528 84.66553v144.33447a3.00328 3.00328 0 0 0 3 3h300z" fill="#3f3d56"/><path d="m515.02714 410.25a18.02031 18.02031 0 0 1 -18-18v-129a3.00328 3.00328 0 0 0 -3-3h-70a5.0058 5.0058 0 0 1 -5-5v-47a5.0058 5.0058 0 0 1 5-5h104a5.00573 5.00573 0 0 1 5 5v184a18.02031 18.02031 0 0 1 -18 18z" fill="#6c63ff"/><path d="m640.02714 278.25a56.88093 56.88093 0 0 1 57 56.76144v164.30964h112a16.96465 16.96465 0 0 1 17 16.92887h-243v-181.23852a56.88093 56.88093 0 0 1 57-56.76143z" fill="#3f3d56"/><path d="m626.34909 371.81749 11.80284 48.75606 230.8812-55.89155-11.80284-48.75606a3.6384 3.6384 0 0 0 -2.35767-2.59508 3.59409 3.59409 0 0 0 -1.33406-.20075l-133.45919-69.10192a3.682 3.682 0 0 0 -4.65628 1.11925l-64.31987 89.69375-24.24794 33.82281a.51379.51379 0 0 0 -.089.41825 3.64176 3.64176 0 0 0 -.41719 2.73524z" fill="#fff"/><path d="m626.7663 369.08226a.48973.48973 0 0 0 .20314.31583.55943.55943 0 0 0 .43331.08552.53586.53586 0 0 0 .29889-.20727l.08326-.11537 1.26254-1.76554 22.92889-31.96427 64.30082-89.6732a2.6198 2.6198 0 0 1 3.32194-.79624l132.42537 68.56666 1.18838.6168a1.29216 1.29216 0 0 0 .14733.05165 1.61549 1.61549 0 0 1 .27147-.026.51364.51364 0 0 0 .28983-.24474.524.524 0 0 0 -.21883-.7087l-.16408-.08726-133.45919-69.10194a3.682 3.682 0 0 0 -4.65628 1.11925l-64.31987 89.69375-24.24794 33.82281a.51379.51379 0 0 0 -.08898.41826z" fill="#3f3d56"/><path d="m696.10724 374.05386 5.13934.57012 38.14252 4.22535 25.28583 2.79936 1.49358.166 31.55217-24.64477 1.20883-.944 7.45235-5.82019 26.5135-20.70629.15919-1.45441 9.43044-85.11413a4.4539 4.4539 0 0 0 -3.92912-4.91152l-125.85587-13.94175a4.456 4.456 0 0 0 -4.91157 3.9292l-6.65043 60.03756-3.689 33.28581-3.3 29.77847-1.52976 13.82919-.44637 4.00573a4.45691 4.45691 0 0 0 3.93437 4.91027z" fill="#e6e6e6"/><path d="m730.69234 299.44776 54.51668 6.03806 19.33354 2.14069a6.53968 6.53968 0 1 0 1.43979-12.99988l-24.04683-2.66322-49.79941-5.52188a6.54306 6.54306 0 0 0 -1.44377 13.00623z" fill="#fff"/><path d="m727.58833 323.56377c.14068.02515.28136.05031.42455.06411l63.28515 7.0109 10.5663 1.17291a6.54214 6.54214 0 0 0 1.43855-13.005l-15.27834-1.69033-50.13045-5.5548-8.43621-.93485a6.53913 6.53913 0 0 0 -1.86955 12.937z" fill="#fff"/><path d="m720.42587 344.94759a6.53866 6.53866 0 0 0 4.88047 3.12537l25.9387 2.87281 46.19708 5.118.01018-.00247 1.47721.16462 7.45235-5.82019a6.47057 6.47057 0 0 0 .0011-1.33 6.5548 6.5548 0 0 0 -5.78686-5.82386l-6.41729-.713-25.457-2.81712-18.31689-2.0315-23.66022-2.62223a6.54 6.54 0 0 0 -6.31878 9.87953z" fill="#fff"/><path d="m756.8588 269.96954 13.5644 1.50232 5.99124.66537 9.05013 1.00159a6.54214 6.54214 0 0 0 1.43855-13.005l-28.59932-3.16545a6.54059 6.54059 0 1 0 -1.445 13.00113z" fill="#fff"/><path d="m645.9437 306.1818 16.53736 68.3138 27.60123 5.24823 25.532 4.86089 27.39356 5.21238 8.753 1.6657a3.6733 3.6733 0 0 0 2.93957-.71161l7.02206-5.48451 4.44605-3.472 31.55217-24.64477-20.062-82.87362a4.40272 4.40272 0 0 0 -1.24424-2.15908 4.44864 4.44864 0 0 0 -4.12489-1.11718l-123.06957 29.79264a4.45037 4.45037 0 0 0 -3.2763 5.36913z" fill="#6c63ff"/><path d="m683.86407 360.52788a6.54613 6.54613 0 0 0 7.89577 4.818l72.2144-17.48162a6.54974 6.54974 0 0 0 4.818-7.89578 2.09959 2.09959 0 0 0 -.0705-.24672 6.53879 6.53879 0 0 0 -7.82527-4.5713l-72.2144 17.48161a6.54613 6.54613 0 0 0 -4.818 7.89581z" fill="#fff"/><path d="m690.08229 379.74383 25.532 4.86089 54.08456-13.09272a6.54051 6.54051 0 1 0 -3.07775-12.7138l-72.21439 17.48162a6.49388 6.49388 0 0 0 -3.74749 2.51147 6.5835 6.5835 0 0 0 -.57693.95254z" fill="#fff"/><path d="m743.00785 389.8171 8.753 1.6657a3.6733 3.6733 0 0 0 2.93957-.71161l7.02206-5.48451z" fill="#fff"/><path d="m698.41482 323.89664a6.54611 6.54611 0 0 0 7.89577 4.818l27.97037-6.77105a6.54973 6.54973 0 0 0 4.818-7.89577 6.46594 6.46594 0 0 0 -1.20489-2.48625 6.5454 6.5454 0 0 0 -6.69088-2.33178l-27.97037 6.77105a6.54142 6.54142 0 0 0 -4.818 7.89577z" fill="#fff"/><path d="m715.61222 384.60434 27.398 5.21358 8.75042 1.66643a3.68877 3.68877 0 0 0 2.938-.71124l7.02714-5.48585-2.46594.59695-5.20559 4.061a2.63556 2.63556 0 0 1 -2.09887.5081l-6.47926-1.23238-27.398-5.21357zm81.83767-28.539.26672 1.10181 1.21521-.9448zm-81.83767 28.539 27.398 5.21358 8.75042 1.66643a3.68877 3.68877 0 0 0 2.938-.71124l7.02714-5.48585-2.46594.59695-5.20559 4.061a2.63556 2.63556 0 0 1 -2.09887.5081l-6.47926-1.23238-27.398-5.21357zm0 0 27.398 5.21358 8.75042 1.66643a3.68877 3.68877 0 0 0 2.938-.71124l7.02714-5.48585-2.46594.59695-5.20559 4.061a2.63556 2.63556 0 0 1 -2.09887.5081l-6.47926-1.23238-27.398-5.21357zm-89.26313-12.78685 30.916 127.71019a3.66655 3.66655 0 0 0 4.42206 2.69835l223.76079-54.16788a3.6663 3.6663 0 0 0 2.69835-4.42206l-30.916-127.71018a3.6384 3.6384 0 0 0 -2.35767-2.59508 3.59409 3.59409 0 0 0 -1.33406-.20075 3.45812 3.45812 0 0 0 -1.5141.3983 3.17906 3.17906 0 0 0 -.60724.37708l-18.36413 14.33976-26.67024 20.83345-8.93478 6.97911.00182.00751-.00769.00186-32.7657 25.578-5.41664 4.23905-5.20559 4.061a2.63556 2.63556 0 0 1 -2.09887.5081l-6.47926-1.23238-27.398-5.21357-27.42214-5.21563-60.06115-11.42972a3.59025 3.59025 0 0 0 -1.54741.03342 3.66988 3.66988 0 0 0 -1.78823 1.03592 4.11057 4.11057 0 0 0 -.49291.65091 3.64176 3.64176 0 0 0 -.41721 2.73524zm89.26313 12.78685 27.398 5.21358 8.75042 1.66643a3.68877 3.68877 0 0 0 2.938-.71124l7.02714-5.48585-2.46594.59695-5.20559 4.061a2.63556 2.63556 0 0 1 -2.09887.5081l-6.47926-1.23238-27.398-5.21357zm0 0 27.398 5.21358 8.75042 1.66643a3.68877 3.68877 0 0 0 2.938-.71124l7.02714-5.48585-2.46594.59695-5.20559 4.061a2.63556 2.63556 0 0 1 -2.09887.5081l-6.47926-1.23238-27.398-5.21357zm0 0 27.398 5.21358 8.75042 1.66643a3.68877 3.68877 0 0 0 2.938-.71124l7.02714-5.48585-2.46594.59695-5.20559 4.061a2.63556 2.63556 0 0 1 -2.09887.5081l-6.47926-1.23238-27.398-5.21357z" fill="#fff"/><path d="m715.61222 384.60434 27.398 5.21358 8.75042 1.66643a3.68877 3.68877 0 0 0 2.938-.71124l7.02714-5.48585-2.46594.59695-5.20559 4.061a2.63556 2.63556 0 0 1 -2.09887.5081l-6.47926-1.23238-27.398-5.21357zm81.83767-28.539.26672 1.10181 1.21521-.9448zm-81.83767 28.539 27.398 5.21358 8.75042 1.66643a3.68877 3.68877 0 0 0 2.938-.71124l7.02714-5.48585-2.46594.59695-5.20559 4.061a2.63556 2.63556 0 0 1 -2.09887.5081l-6.47926-1.23238-27.398-5.21357zm0 0 27.398 5.21358 8.75042 1.66643a3.68877 3.68877 0 0 0 2.938-.71124l7.02714-5.48585-2.46594.59695-5.20559 4.061a2.63556 2.63556 0 0 1 -2.09887.5081l-6.47926-1.23238-27.398-5.21357zm-87.82732-15.44334.13589.102c.02275-.03727.06233-.07063.09239-.10968a2.64256 2.64256 0 0 1 2.38507-.76779l59.68567 11.354 25.5283 4.86479 27.398 5.21358 8.75042 1.66643a3.68877 3.68877 0 0 0 2.938-.71124l7.02714-5.48585-2.46594.59695-5.20559 4.061a2.63556 2.63556 0 0 1 -2.09887.5081l-6.47926-1.23238-27.398-5.21357-27.42212-5.21562-60.06115-11.42972a3.59025 3.59025 0 0 0 -1.54741.03342zm-1.43581 2.65652 30.916 127.71019a3.66655 3.66655 0 0 0 4.42206 2.69835l223.76079-54.16788a3.6663 3.6663 0 0 0 2.69835-4.42206l-30.916-127.71018a3.6384 3.6384 0 0 0 -2.35767-2.59508 3.59409 3.59409 0 0 0 -1.33406-.20075 3.45812 3.45812 0 0 0 -1.5141.3983 3.17906 3.17906 0 0 0 -.60724.37708l-18.36413 14.33976-26.67024 20.83345-8.93478 6.97911.00182.00751-.00769.00186-32.7657 25.578-5.41664 4.23905-5.20559 4.061a2.63556 2.63556 0 0 1 -2.09887.5081l-6.47926-1.23238-27.398-5.21357-27.42214-5.21566-60.06115-11.42972a3.59025 3.59025 0 0 0 -1.54741.03342 3.66988 3.66988 0 0 0 -1.78823 1.03592 4.11057 4.11057 0 0 0 -.49291.65091 3.64176 3.64176 0 0 0 -.41721 2.73524zm1.0196-.24682a2.59762 2.59762 0 0 1 .46152-2.19054.34094.34094 0 0 1 .09058-.11714c.02275-.03727.06233-.07063.09239-.10968a2.64256 2.64256 0 0 1 2.38507-.76779l59.68567 11.354 25.5283 4.86479 27.398 5.21358 8.75042 1.66643a3.68877 3.68877 0 0 0 2.938-.71124l7.02714-5.48585 4.44395-3.47195 31.54686-24.64821 1.21521-.9448 7.44662-5.81748 26.5182-20.70938 19.17121-14.97157a2.60368 2.60368 0 0 1 .98714-.477 1.99722 1.99722 0 0 1 .30518-.05006 1.61549 1.61549 0 0 1 .27147-.026 2.67893 2.67893 0 0 1 .90068.14691 2.625 2.625 0 0 1 1.68605 1.85318l30.916 127.71019a2.61952 2.61952 0 0 1 -1.93138 3.16522l-223.76077 54.16785a2.61809 2.61809 0 0 1 -3.1575-1.93331zm88.24353 13.03367 27.398 5.21358 8.75042 1.66643a3.68877 3.68877 0 0 0 2.938-.71124l7.02714-5.48585-2.46594.59695-5.20559 4.061a2.63556 2.63556 0 0 1 -2.09887.5081l-6.47926-1.23238-27.398-5.21357zm0 0 27.398 5.21358 8.75042 1.66643a3.68877 3.68877 0 0 0 2.938-.71124l7.02714-5.48585-2.46594.59695-5.20559 4.061a2.63556 2.63556 0 0 1 -2.09887.5081l-6.47926-1.23238-27.398-5.21357zm0 0 27.398 5.21358 8.75042 1.66643a3.68877 3.68877 0 0 0 2.938-.71124l7.02714-5.48585-2.46594.59695-5.20559 4.061a2.63556 2.63556 0 0 1 -2.09887.5081l-6.47926-1.23238-27.398-5.21357z" fill="#3f3d56"/><path d="m827.1291 422.96742a8.12818 8.12818 0 0 1 5.98077-9.80128l28.24156-6.8367a8.119 8.119 0 0 1 3.82051 15.78205l-28.24156 6.8367a8.12818 8.12818 0 0 1 -9.80128-5.98077z" fill="#6c63ff"/></g><circle cx="203.27678" cy="189" fill="#fff" r="7"/></svg>