<?xml version="1.0" standalone="no"?>
<!DOCTYPE svg PUBLIC "-//W3C//DTD SVG 20010904//EN"
 "http://www.w3.org/TR/2001/REC-SVG-20010904/DTD/svg10.dtd">
<svg version="1.0" xmlns="http://www.w3.org/2000/svg"
 width="700.000000pt" height="700.000000pt" viewBox="0 0 700.000000 700.000000"
 preserveAspectRatio="xMidYMid meet">
<metadata>
Created by potrace 1.11, written by Peter Selinger 2001-2013
</metadata>
<g transform="translate(0.000000,700.000000) scale(0.100000,-0.100000)"
fill="#000000" stroke="none">
<path d="M2670 3850 l0 -1700 230 0 230 0 0 684 0 684 423 5 c375 4 433 7 517
25 426 90 662 299 760 674 31 119 39 395 16 537 -78 466 -384 724 -928 781
-51 5 -353 10 -670 10 l-578 0 0 -1700z m1295 1291 c105 -34 183 -80 245 -141
67 -67 100 -122 137 -226 25 -74 27 -90 27 -239 0 -147 -2 -167 -27 -242 -49
-146 -144 -259 -271 -321 -141 -69 -244 -82 -648 -82 l-298 0 0 641 0 640 383
-3 c366 -4 385 -5 452 -27z"/>
</g>
</svg>
