<svg viewBox="0 0 32 32" xmlns="http://www.w3.org/2000/svg"><path d="m22.3 8.55c0 2.25-.59 4.37-1.63 6.2-2.2-3.77-6.28-6.32-10.96-6.34v-.14c-.01-8.1 12.1-8.54 12.56-.46.01.24.02.49.02.74z" fill="#f0abfc"/><path d="m23.7 9.7c8.09 0 8.53 12.1.45 12.57-.24.01-.49.02-.74.02-2.21 0-4.29-.57-6.1-1.57 3.75-2.22 6.27-6.31 6.27-10.99v-.03h.11z" fill="#fcd34d"/><path d="m22.3 23.59v.14c0 8.09-12.1 8.53-12.57.45-.01-.24-.02-.49-.02-.74 0-2.25.59-4.37 1.63-6.2 2.2 3.78 6.28 6.32 10.96 6.35z" fill="#818cf8"/><path d="m14.68 11.28c-3.75 2.22-6.27 6.31-6.27 10.99v.03h-.11c-8.1 0-8.54-12.11-.46-12.57.24-.01.49-.02.74-.02 2.21 0 4.29.57 6.1 1.57z" fill="#a78bfa"/></svg>