<?xml version="1.0" encoding="UTF-8"?><svg id="a" xmlns="http://www.w3.org/2000/svg" viewBox="0 0 32 32"><defs><style>.b{fill:#fcd34d;}.c{fill:#f0abfc;}.d{fill:#818cf8;}.e{fill:#a78bfa;}</style></defs><path class="c" d="M22.3,8.55c0,2.25-.59,4.37-1.63,6.2-2.2-3.77-6.28-6.32-10.96-6.34v-.14C9.7,.17,21.81-.27,22.27,7.81c.01,.24,.02,.49,.02,.74Z"/><path class="b" d="M23.7,9.7c8.09,0,8.53,12.1,.45,12.57-.24,.01-.49,.02-.74,.02-2.21,0-4.29-.57-6.1-1.57,3.75-2.22,6.27-6.31,6.27-10.99v-.03h.11Z"/><path class="d" d="M22.3,23.59v.14c0,8.09-12.1,8.53-12.57,.45-.01-.24-.02-.49-.02-.74,0-2.25,.59-4.37,1.63-6.2,2.2,3.78,6.28,6.32,10.96,6.35Z"/><path class="e" d="M14.68,11.28c-3.75,2.22-6.27,6.31-6.27,10.99v.03h-.11C.2,22.3-.24,10.19,7.84,9.73c.24-.01,.49-.02,.74-.02,2.21,0,4.29,.57,6.1,1.57Z"/></svg>