<svg height="700pt" preserveAspectRatio="xMidYMid meet" viewBox="0 0 700 700" width="700pt" xmlns="http://www.w3.org/2000/svg"><g transform="matrix(.1 0 0 -.1 0 700)"><path d="m3360 6563c-60-6-239-43-288-59-159-52-291-117-412-202-69-49-217-191-267-257-101-134-196-338-228-493-2-9-8-38-14-63-11-51-21-148-25-256l-3-73 46-1c106-2 291-16 321-24 8-2 35-7 60-10 344-47 751-202 1072-411 88-57 212-146 228-164 3-3 28-23 55-44 79-63 295-283 368-376 37-47 75-94 83-105 32-39 154-227 154-236 0-32 27 8 85 129 76 155 73 149 113 257 57 151 123 411 138 535 2 19 6 44 9 55 24 107 24 615 0 688-2 7-6 28-9 47-10 68-48 196-83 280-200 484-675 786-1240 786-70 1-144-1-163-3z"/><path d="m1695 4869c-343-24-631-144-846-351-65-61-96-97-177-203-29-37-106-188-135-267-67-174-98-339-99-527-1-82 8-194 18-243 2-13 7-39 10-58 18-111 82-290 145-409 191-358 548-611 939-666 25-3 52-8 60-10 8-3 63-7 123-10l107-5v42c2 101 13 267 24 337 3 14 10 60 16 101 48 310 179 663 354 957 53 91 184 279 221 319 5 6 33 39 60 73 56 68 234 244 309 306 27 22 54 45 60 50 35 31 187 140 252 181l76 48-104 52c-163 82-450 188-565 208-13 3-31 7-41 10-9 3-28 7-42 10s-47 9-75 15c-27 5-70 12-95 16-25 3-56 8-70 10-113 17-382 24-525 14z"/><path d="m5159 4862c-8-193-15-303-24-353-3-13-7-40-9-59-19-146-99-451-151-575-7-16-23-55-35-85-37-92-139-289-204-393-210-337-494-629-833-855l-114-76 105-53c240-120 472-195 781-253 206-38 592-46 760-15 17 3 57 10 89 16 181 32 412 140 561 263 55 45 185 177 185 188 0 4 6 13 13 20 26 26 105 155 140 228 88 184 129 368 133 595 4 266-43 481-153 701-218 438-627 695-1142 719-90 4-101 3-102-13z"/><path d="m2422 3118c-88-176-165-377-207-538-61-235-89-462-89-715 1-202 11-300 45-440 135-546 569-917 1149-984 79-9 313-7 366 3 149 28 192 38 275 65 206 67 384 176 534 326 240 240 360 522 380 899l6 106-38 1c-114 1-314 19-398 35-10 2-36 6-56 9-120 18-377 93-536 156-108 43-312 146-413 208-89 55-260 175-295 208-12 10-50 43-85 73-95 80-231 221-325 335-85 105-201 267-229 323-9 17-20 32-24 32s-31-46-60-102z"/></g></svg>