<svg fill="none" height="48" viewBox="0 0 48 48" width="48" xmlns="http://www.w3.org/2000/svg"><circle cx="24" cy="24" fill="#efd81c" r="24"/><path d="m20 29.3333h.0133m-.0133-14.6666h-2.6667c-.7072 0-1.3855.2809-1.8856.781s-.781 1.1784-.781 1.8856v16c0 .7073.2809 1.3856.781 1.8857.5001.5 1.1784.781 1.8856.781h13.3334c.7072 0 1.3855-.281 1.8856-.781.5001-.5001.781-1.1784.781-1.8857v-16c0-.7072-.2809-1.3855-.781-1.8856s-1.1784-.781-1.8856-.781h-2.6667zm0 0c0 .7072.2809 1.3855.781 1.8856s1.1784.781 1.8857.781h2.6666c.7073 0 1.3856-.2809 1.8856-.781.5001-.5001.7811-1.1784.7811-1.8856zm0 0c0-.7073.2809-1.3856.781-1.8857.5001-.5 1.1784-.781 1.8857-.781h2.6666c.7073 0 1.3856.281 1.8856.781.5001.5001.7811 1.1784.7811 1.8857zm4 9.3333h4zm0 5.3333h4zm-4-5.3333h.0133z" stroke="#000" stroke-linecap="round" stroke-linejoin="round" stroke-width="2"/></svg>