<svg fill="none" height="375" viewBox="0 0 416 375" width="416" xmlns="http://www.w3.org/2000/svg" xmlns:xlink="http://www.w3.org/1999/xlink"><linearGradient id="a" gradientUnits="userSpaceOnUse" x1="77.9679" x2="-81.7456" y1="369.7" y2="112.842"><stop offset="0" stop-color="#eb6f07"/><stop offset="1" stop-color="#fab743"/></linearGradient><linearGradient id="b" gradientUnits="userSpaceOnUse" x1="127.492" x2="45.2575" y1="337.948" y2="253.372"><stop offset="0" stop-color="#d96504"/><stop offset="1" stop-color="#d96504" stop-opacity="0"/></linearGradient><linearGradient id="c" gradientUnits="userSpaceOnUse" x1="100.372" x2="143.905" y1="14.1957" y2="84.1263"><stop offset="0" stop-color="#eb6f07"/><stop offset="1" stop-color="#eb720a" stop-opacity="0"/></linearGradient><linearGradient id="d" gradientUnits="userSpaceOnUse" x1="311.923" x2="168.913" y1="375" y2="77.003"><stop offset="0" stop-color="#ee6f05"/><stop offset="1" stop-color="#fab743"/></linearGradient><linearGradient id="e" gradientUnits="userSpaceOnUse" x1="165.458" x2="394.43" y1="375.1" y2="316.984"><stop offset="0" stop-color="#d96504" stop-opacity=".8"/><stop offset=".498" stop-color="#d96504" stop-opacity=".2"/><stop offset="1" stop-color="#d96504" stop-opacity="0"/></linearGradient><linearGradient id="f" gradientUnits="userSpaceOnUse" x1="207.564" x2="61.6346" y1="375" y2="80.7418"><stop offset="0" stop-color="#ffa95f"/><stop offset="1" stop-color="#ffebc8"/></linearGradient><linearGradient id="g"><stop offset="0" stop-color="#fff" stop-opacity=".5"/><stop offset="1" stop-color="#fff" stop-opacity=".1"/></linearGradient><linearGradient id="h" gradientUnits="userSpaceOnUse" x1="207.786" x2="329.482" xlink:href="#g" y1="4.125" y2="23.2571"/><linearGradient id="i" gradientUnits="userSpaceOnUse" x1="92.2417" x2="242.662" xlink:href="#g" y1="388.599" y2="366.439"/><path d="m106.936 5.40002 49 88.39998-45 81c-2.154 3.868-3.285 8.222-3.285 12.65s1.131 8.782 3.285 12.65l45 81.2-49 88.4c-9.2202-4.571-16.8766-11.775-22.0001-20.7l-78.00001-135.5c-4.54447-7.912-6.93589-16.876-6.93589-26s2.39142-18.088 6.93589-26l78.00001-135.5c5.1389-8.8879 12.7939-16.05566 22.0001-20.59998z" fill="url(#a)"/><path d="m110.936 174.9c-2.136 3.856-3.257 8.192-3.257 12.6s1.121 8.744 3.257 12.6l45 81.2-49 88.4c-9.2202-4.571-16.8766-11.775-22.0001-20.7l-78.00001-135.5c-6.199999-10.7 28.50001-23.5 104.00011-38.5z" fill="url(#b)" opacity=".7"/><path d="m111.936 14.3 44 79.5-7.3 12.7-38.8-65.7c-11.2001-18.3-28.3001-8.8-49.7001 28.2l3.2-5.5 21.6-37.5c5.0856-8.8588 12.6678-16.02353 21.8001-20.59998l5.1 8.89998z" fill="url(#c)" opacity=".5"/><path d="m330.936 26 78 135.5c9.3 16 9.3 36 0 52l-78 135.5c-4.561 7.9-11.12 14.461-19.019 19.025s-16.859 6.969-25.981 6.975h-78l97-174.9c2.136-3.856 3.257-8.192 3.257-12.6s-1.121-8.744-3.257-12.6l-97-174.9h78c9.122.00584652 18.082 2.41134 25.981 6.97501 7.899 4.56369 14.458 11.12489 19.019 19.02499z" fill="url(#d)"/><path d="m281.936 374.4-77 .7 93.2-175.8c2.083-3.909 3.173-8.27 3.173-12.7s-1.09-8.791-3.173-12.7l-93.2-173.9h17.6l97.8 173.1c2.317 4.089 3.527 8.713 3.51 13.413-.018 4.701-1.262 9.315-3.61 13.387-21.049 36.582-41.949 73.249-62.7 110-19 33.4-10.8 54.9 24.4 64.5z" fill="url(#e)"/><path d="m129.936 375c-8 0-16-1.9-23-5.3l96.2-173.5c3-5.4 3-12 0-17.4l-96.2-173.4c7.151-3.54084 15.02-5.3885265 23-5.4h78l97 174.9c2.136 3.856 3.257 8.192 3.257 12.6s-1.121 8.744-3.257 12.6l-97 174.9z" fill="url(#f)"/><path d="m298.136 178.8-99.2-178.8h9l97 174.9c2.136 3.856 3.257 8.192 3.257 12.6s-1.121 8.744-3.257 12.6l-97 174.9h-9l99.2-178.8c3-5.4 3-12 0-17.4z" fill="url(#h)" opacity=".6"/><path d="m203.136 178.8-96.2-173.40002c3-1.6 6.6-2.8 10-3.8 21.2 38.10002 52.5 95.90002 94 173.30002 2.136 3.856 3.257 8.192 3.257 12.6s-1.121 8.744-3.257 12.6l-95.5 172.9c-3.4-1-5.2-1.7-8.4-3.2l96-173.5c3-5.4 3-12 0-17.4z" fill="url(#i)" opacity=".6"/></svg>