<svg fill="none" height="300" viewBox="0 0 300 300" width="300" xmlns="http://www.w3.org/2000/svg" xmlns:xlink="http://www.w3.org/1999/xlink"><linearGradient id="a" gradientUnits="userSpaceOnUse" x1="300.001" x2="1.63474" y1="50.7858" y2="221.244"><stop offset="0" stop-color="#ff5caa"/><stop offset="1" stop-color="#ff4e62"/></linearGradient><g fill="url(#a)"><path d="m0 237 55.426-140.2322c7.8107-19.7615 27.073-32.7678 48.529-32.7678h33.416l-55.4263 140.232c-7.8106 19.761-27.073 32.768-48.5291 32.768z"/><path d="m81.3123 237 55.4257-140.2318c7.811-19.7615 27.073-32.7678 48.529-32.7678h33.416l-55.426 140.2316c-7.811 19.762-27.073 32.768-48.529 32.768z"/><path d="m162.629 237 55.426-140.2318c7.811-19.7615 27.073-32.7678 48.529-32.7678h33.416l-55.426 140.2316c-7.811 19.762-27.073 32.768-48.529 32.768z"/></g></svg>