<svg xmlns="http://www.w3.org/2000/svg" width="48" height="48"><path fill="#ff9100" d="M24 4C12.955 4 4 12.954 4 24c0 7.393 4.022 13.833 9.987 17.295l4.506-7.783C15.212 31.608 13 28.066 13 24c0-6.075 4.925-11 11-11s11 4.925 11 11c0 4.066-2.212 7.608-5.493 9.512l4.506 7.783C39.978 37.833 44 31.393 44 24c0-11.046-8.955-20-20-20z"/><path fill="#1a237e" d="M30 24a6 6 0 00-12 0 5.996 5.996 0 003.852 5.597l-2.56 13.822c1.513.366 3.084.581 4.708.581s3.195-.215 4.707-.58l-2.56-13.822A5.998 5.998 0 0030 24z"/></svg>