<svg viewBox="0 0 42 36.09" xmlns="http://www.w3.org/2000/svg"><g transform="translate(0 -3)"><path d="m14.63 4a2.09 2.09 0 0 0 -1.77-1h-10.76a2.1 2.1 0 0 0 -2.1 2.1 2.12 2.12 0 0 0 .32 1.12l2.77 4.07 13.85-3z" fill="#c9f4ff"/><path d="m17 7.37a2.11 2.11 0 0 0 -1.78-1h-10.72a2.09 2.09 0 0 0 -1.84 3.24l3.09 4.9 14.31-2.24z" fill="#51b9ff"/><path d="m5.62 14.31a2.14 2.14 0 0 1 -.19-1.88 2.11 2.11 0 0 1 2-1.34h10.72a2.1 2.1 0 0 1 1.78 1l9.63 15.27a2.12 2.12 0 0 1 .32 1.12 2.15 2.15 0 0 1 -.32 1.12l-5.38 8.53a2.11 2.11 0 0 1 -3.56 0zm27.12 4.88a2.11 2.11 0 0 0 3.56 0l1.85-2.93 3.53-5.6a2.12 2.12 0 0 0 .32-1.12 2.15 2.15 0 0 0 -.32-1.12l-2.8-4.42a2.11 2.11 0 0 0 -1.78-1h-10.76a2.1 2.1 0 0 0 -2.1 2.1 2 2 0 0 0 .33 1.12z" fill="#007bfc"/></g></svg>